<?xml version="1.0" encoding="UTF-8" standalone="no"?>
<svg
   xmlns:dc="http://purl.org/dc/elements/1.1/"
   xmlns:cc="http://creativecommons.org/ns#"
   xmlns:rdf="http://www.w3.org/1999/02/22-rdf-syntax-ns#"
   xmlns:svg="http://www.w3.org/2000/svg"
   xmlns="http://www.w3.org/2000/svg"
   id="svg8"
   version="1.1"
   viewBox="0 0 83.60833 83.60833"
   height="83.60833mm"
   width="83.60833mm">
  <defs
     id="defs2" />
  <metadata
     id="metadata5">
    <rdf:RDF>
      <cc:Work
         rdf:about="">
        <dc:format>image/svg+xml</dc:format>
        <dc:type
           rdf:resource="http://purl.org/dc/dcmitype/StillImage" />
        <dc:title></dc:title>
      </cc:Work>
    </rdf:RDF>
  </metadata>
  <g
     transform="translate(-46.642265,-30.767263)"
     id="layer1">
    <path
       d="M 88.446435,30.767263 A 41.804163,41.804163 0 0 0 46.642265,72.571429 41.804163,41.804163 0 0 0 88.446435,114.3756 41.804163,41.804163 0 0 0 130.25059,72.571429 41.804163,41.804163 0 0 0 88.446435,30.767263 Z m 0,4.499983 A 37.304001,37.304001 0 0 1 125.75009,72.571429 37.304001,37.304001 0 0 1 88.446435,109.8751 37.304001,37.304001 0 0 1 51.142245,72.571429 37.304001,37.304001 0 0 1 88.446435,35.267246 Z"
       style="fill:#022844;fill-opacity:0.99607843;fill-rule:evenodd;stroke-width:2.376;stroke-miterlimit:4;stroke-dasharray:none"
       id="path26" />
    <path
       id="rect67"
       d="m 88.44616,42.355704 -4.91858,8.285799 c 0.96989,-0.271809 1.94222,-0.541725 2.91871,-0.716235 v 33.963817 l -2.49961,1.388547 v 3.500043 l 2.49961,-1.388544 v 1.791621 l -2.49961,1.388546 v 3.500044 l 2.49961,-1.388544 v 1.79162 l -2.49961,1.388547 v 3.500043 l 4.50001,-2.500106 4.50001,2.500106 v -3.500043 l -2.50012,-1.389062 v -1.791624 l 2.50012,1.389063 v -3.500044 l -2.50012,-1.389062 v -1.791623 l 2.50012,1.389062 V 85.277632 L 90.44658,83.888569 V 49.935086 c 0.97002,0.17428 1.94148,0.438699 2.9187,0.706934 z"
       style="fill:#022944;fill-opacity:1;fill-rule:evenodd;stroke-width:2.758;stroke-miterlimit:4;stroke-dasharray:none" />
    <path
       id="rect67-2"
       style="fill:#022944;fill-opacity:1;fill-rule:evenodd;stroke-width:2.75825"
       d="m 105.94585,46.589036 -4.91858,8.285799 c 0.96989,-0.271809 1.94222,-0.541725 2.91871,-0.716235 v 28.142984 l -2.49961,1.388547 v 2.44171 l 2.49961,-0.330211 v 1.791621 l -2.49961,1.388546 v 3.500044 l 2.49961,-1.388544 v 1.79162 l -2.49961,1.388547 v 3.500043 l 4.50001,-2.500106 4.50001,2.500106 v -3.500043 l -2.50012,-1.389062 v -1.791624 l 2.50012,1.389063 v -3.500044 l -2.50012,-1.389062 v -1.791624 l 2.50012,0.33073 v -2.44171 l -2.50012,-1.389063 v -28.13265 c 0.97002,0.17428 1.94148,0.438699 2.9187,0.706934 z" />
    <path
       id="rect67-1"
       style="fill:#022944;fill-opacity:1;fill-rule:evenodd;stroke-width:2.758;stroke-miterlimit:4;stroke-dasharray:none"
       d="m 70.945845,46.589263 -4.91858,8.285799 c 0.96989,-0.271809 1.94222,-0.541725 2.91871,-0.716235 v 28.142984 l -2.49961,1.388547 v 2.44171 l 2.49961,-0.330211 v 1.791621 l -2.49961,1.388546 v 3.500044 l 2.49961,-1.388544 v 1.79162 l -2.49961,1.388547 v 3.500043 l 4.50001,-2.500106 4.50001,2.500106 v -3.500043 l -2.50012,-1.389062 v -1.791624 l 2.50012,1.389063 v -3.500044 l -2.50012,-1.389062 v -1.791624 l 2.50012,0.33073 v -2.44171 l -2.50012,-1.389063 v -28.13265 c 0.97002,0.17428 1.94148,0.438699 2.9187,0.706934 z" />
    <circle
       r="11.247044"
       cy="75.031349"
       cx="105.94612"
       id="path1040"
       style="fill:none;fill-opacity:1;fill-rule:evenodd;stroke:#022944;stroke-width:2.4;stroke-miterlimit:4;stroke-dasharray:none;stroke-opacity:1" />
    <circle
       style="fill:none;fill-opacity:1;fill-rule:evenodd;stroke:#022944;stroke-width:2.4;stroke-miterlimit:4;stroke-dasharray:none;stroke-opacity:1"
       id="path1040-2"
       cx="70.946114"
       cy="75.031303"
       r="11.247044" />
    <circle
       style="fill:none;fill-opacity:1;fill-rule:evenodd;stroke:#022944;stroke-width:2.4;stroke-miterlimit:4;stroke-dasharray:none;stroke-opacity:1"
       id="path1040-28"
       cx="88.446426"
       cy="92.342308"
       r="11.247044" />
  </g>
</svg>
